<svg xmlns="http://www.w3.org/2000/svg" xml:space="preserve" width="2000" height="507" data-id="lg_tx6qk4LryvwlFxeMCx" data-version="1" viewBox="0 0 2000 507"><g data-padding="20"><g transform="translate(10 12.276)scale(.95157)"><rect width="397.333" height="507.545" x="642.496" y="-312.036" fill="none" rx="0" ry="0" transform="matrix(.99 0 0 .99 217.49 308.7)"/><path fill="#61d69b" d="M880.664 390.213V78.947h48.917v131.175l62.251-131.175h48.916l-58.252 114.276 59.143 196.99h-51.143l-41.355-138.738-19.562 39.57v99.168Zm184.09 0V78.947h61.37l47.58 186.308h.881V78.947h43.58v311.266h-50.242l-58.698-227.224h-.89v227.225Z"/><rect width="398.966" height="509.63" x="641.68" y="-313.079" fill="none" rx="0" ry="0" transform="matrix(.99 0 0 .99 198.58 312.63)"/><path fill="#2e4350" d="M861.061 394.707V82.164h49.114v131.72l62.51-131.72h49.112l-58.489 114.75 59.38 197.793h-51.34l-41.532-139.303-19.642 39.739v99.564Zm184.843 0V82.164h61.618l47.777 187.08h.891V82.164h43.758v312.543h-50.45l-58.945-228.155h-.89v228.155Z"/></g><path fill="transparent" stroke="transparent" d="M793.5 0h413v507h-413z"/></g></svg>