<svg xmlns="http://www.w3.org/2000/svg" xml:space="preserve" width="2000" height="1500" data-id="lg_tx6qk4LryvwlFxeMCx" data-version="1" viewBox="0 0 2000 1500"><path stroke="transparent" d="M0 0h2000v1500H0z"/><g data-padding="20"><g transform="translate(-1196.746 -886.961)scale(2.11148)"><rect width="397.333" height="507.545" x="642.496" y="215.002" fill="none" rx="0" ry="0" transform="matrix(.99 0 0 .99 217.49 308.7)"/><path fill="#61d69b" d="M880.664 911.98V600.714h48.917v131.175l62.251-131.175h48.916L982.496 714.99l59.143 196.99h-51.143l-41.355-138.738-19.562 39.57v99.168Zm184.09 0V600.714h61.37l47.58 186.308h.881V600.714h43.58V911.98h-50.242l-58.698-227.224h-.89V911.98Z"/><rect width="398.966" height="509.63" x="641.68" y="213.959" fill="none" rx="0" ry="0" transform="matrix(.99 0 0 .99 198.58 312.63)"/><path fill="#2e4350" d="M861.061 916.474V603.93h49.114v131.72l62.51-131.72h49.112l-58.489 114.75 59.38 197.793h-51.34L929.816 777.17l-19.642 39.739v99.564Zm184.843 0V603.93h61.618l47.777 187.08h.891V603.93h43.758v312.543h-50.45l-58.945-228.155h-.89v228.155Z"/></g><path fill="transparent" stroke="transparent" stroke-width="2.219" d="M541.79 187.5h916.42v1125H541.79z"/></g></svg>