<svg xmlns="http://www.w3.org/2000/svg" xml:space="preserve" width="2000" height="629" data-id="lg_wqgBGteW5HIyYsf1g1" data-version="1" viewBox="0 0 2000 629"><g data-padding="20"><g transform="translate(10 11.416)scale(.9637)"><rect width="217.062" height="439.57" x="533.372" y="-244.552" fill="none" rx="0" ry="0" transform="translate(218.3 350.79)"/><path fill="#6366f1" d="M769.883 211.823q9.5 0 43.31 8.36 3.8 2.65 3.8 4.93-3.42 15.2-3.42 37.99l1.9 37.61q0 34.57-3.8 75.22l-.76 18.99v2.28q0 5.7 1.14 11.02h.76q3.42-1.9 18.99-40.65 10.64-24.31 17.48-46.73 5.7-4.55 9.49-14.81l1.14-.76h1.14q6.08 2.66 15.58 3.8 8.36 0 12.91 65.34 3.42 25.45 6.08 25.45 2.28 0 11.02-33.05 5.32-17.47 12.92-49.76 6.83-24.32 12.91-71.04 1.14-3.42 4.18-30.77 6.08-1.14 20.51-1.14h7.22q17.48 0 20.89 5.32l1.9 4.55-.76 3.04q0 25.46-1.14 30.39h-.75q-9.5-1.14-12.16-1.14h-.38q-6.46 0-8.36 10.26-19.37 61.54-23.55 94.21-2.66 9.5-4.56 33.05-8.74 46.35-9.88 47.87-4.18 4.18-17.47 6.84-26.59.38-27.73-3.42l-6.84-22.42q-6.46-24.69-6.46-33.81-3.04-17.47-5.7-22.41-1.9 0-9.49 22.41-9.5 20.14-13.68 33.81l-3.04 9.12q-4.94 6.08-4.94 8.36v1.14l1.14 3.8q0 4.17-34.19 5.69-3.04-.76-3.04-1.52l.76-2.27q-3.42 0-7.21-17.48-4.18-21.65-4.18-39.89v-53.18l-4.94-44.07-.76-25.83.38-5.7q-1.9-5.32-9.12-5.32-13.29-1.13-13.29-6.45 1.52-5.32 3.79-29.63.76-2.28 5.32-4.94 1.52-2.66 4.94-2.66m203.24 6.08h-.76l-27.73.76q-4.56.38-4.56 1.9v.76q0 1.13 1.14 1.13l31.91-3.41Zm-185.38 8.35 1.14.76 5.31-1.52h2.28q2.28 1.14 4.56 9.12l2.66.38h.76q4.94 0 6.08-4.94v-.38q0-1.9-11.78-5.7h-6.08q-4.93.38-4.93 2.28m-15.2 22.42v.38q.38 1.52 2.66 1.52h5.32l1.14-.76v-1.9q-.76-1.14-3.04-1.14h-1.9q-3.42 0-4.18 1.9m199.06-.76v-.38h-1.52v.38Zm-174.37 12.15-.76.76h-.76v22.8q0 5.31 2.66 9.49l-.76.76v.76l1.14 1.14h1.14l1.14-1.9-3.42-33.05Zm140.56 38.37-.38-3.04h-.76q-2.66 10.26-2.66 17.1v.38h.76q3.04-4.18 3.04-14.44m-128.78 14.44v-.38h-1.14v.38Zm68.76 3.8h-1.14l-.76.76v5.69l1.52 1.52h.76l1.14-.76Zm-80.54 12.53-1.52-9.5h-.76v6.84l.76 5.7h1.52Zm80.16-2.28-1.14 1.14v4.18q0 4.56 3.04 20.51h1.14v-3.41q0-22.42-3.04-22.42m-13.3 19.38v-.38h-1.9l-.76 1.14.76.38h.38Zm57.74 21.27.38.76h.76q1.52-1.52 1.52-3.8v-.38h-.38q-2.28 1.14-2.28 3.42m-53.56-2.66h-.38v2.66q.38 7.22 2.28 7.22h.38l1.14-.38q-2.66-9.5-3.42-9.5m51.29 16.72.75 3.79-4.55 10.64h.76q4.93-5.32 4.93-10.64v-4.55q1.52-1.52 1.52-4.56v-3.8h-.76q-2.65 1.52-2.65 9.12m-72.18 4.17v-1.51h-1.9l-.38 2.27v1.14h.38Zm62.68 1.14-1.14-1.14q-4.94 10.26-4.94 13.3v.76h.76q5.32-7.6 5.32-12.92m15.95 10.64h1.14q1.52-.38 2.66-9.5h-.76q-3.04 4.18-3.04 9.5m-37.61 9.12-1.13-5.7h-1.14v.38q0 5.32 1.52 5.32Zm0 2.66h-1.51v9.11q.38 14.06 4.17 14.06h1.9q2.66 0 3.8-1.9v-1.52h-3.04q-4.94 0-5.32-19.75m-64.58 13.29q0 3.04 3.42 3.04l.76-1.52v-5.7h-.76q-3.42 1.9-3.42 4.18m83.2 7.22v1.52l1.14 1.14h1.52q2.28-1.14 2.28-4.94l-1.14-1.14h-.38q-2.28 1.52-3.42 3.42m10.26 11.02v.76h.38q2.65 0 4.17-8.36v-1.9h-.38q-1.89 0-4.17 9.5m-115.87-11.4v.38l2.66 2.66h1.9l.76-3.42v-2.66q0-.76-1.52-.76-3.8 1.14-3.8 3.8m20.14 2.66q2.65 1.52 5.69 1.52h.38l.76-.76v-.38q0-3.8-3.42-3.8-3.41 1.14-3.41 3.42m63.06 6.08v.76q0 1.14 2.66 1.14 1.51-.38 2.65-1.52-.38-2.28-3.41-2.28-1.9 1.14-1.9 1.9m12.91 3.8 1.52.76h3.42q3.8 0 4.18-1.14v-.76l-3.04-.76h-2.28q-3.04 0-3.8 1.9m-14.43 4.56h1.14q3.79 0 4.93-2.28l-1.14-1.14h-1.89q-3.04 1.9-3.04 3.42m-68.76-5.32v.38h10.25l1.9-.38v-1.9h-2.66q-9.49 0-9.49 1.9m-8.36-.76h-1.9l-1.52 1.52 1.14.76h1.52l1.9-1.14Zm-16.71 7.22-1.14-.76v-.76h1.14Z"/><rect width="257.054" height="439.57" x="513.376" y="-244.552" fill="none" rx="0" ry="0" transform="translate(455.36 244.37)"/><path fill="#6366f1" d="m1032.023 105.403 21.28 2.28h8.74q14.81 0 14.81 3.04l-3.04 3.42q0 1.52 6.84 3.41v.38q-3.42 2.66-6.46 11.4l-22.41 3.42-3.04.76v.76l1.9 27.73q0 8.74-3.8 36.47v6.84q0 7.97 1.9 31.53l-.38.38-3.04-7.98h-1.14l-.38 5.7v21.65q0 13.3 1.52 13.3h.76l2.28-27.35.38-.38h.76l1.14 9.11-2.28 29.25q3.42 7.22 4.18 11.78 5.32 0 16.33 20.13 7.22 6.84 25.84 6.84l9.49 2.28h2.66q12.92 0 18.62-13.29 7.59-12.16 16.33-28.12 5.32-6.07 5.32-16.71v-6.08l-1.52-37.23 1.14-4.56q.38 0 1.14 1.9h1.14q2.28 0 3.04-11.39-4.94 0-4.94-3.42l2.28-28.49q-3.42-37.61-10.64-37.61-18.61-2.66-18.61-7.22-4.18-6.46-4.18-10.64 7.22-10.25 22.41-10.25 0-.76 26.97-1.52 18.62 0 18.62 3.8l.76 2.28v5.69q0 11.78-12.16 17.1l-1.14 1.52v.76q3.42 52.42 5.7 61.92-5.32 15.95-5.32 58.88 0 5.7-15.19 53.56-5.7 10.26-6.08 10.26-2.66.38-3.42 3.04v.76h3.04v.38q-.38.76-9.5 7.6-6.08 6.08-18.99 6.08l-9.88-.76-20.89 3.79q-39.13 0-54.33-18.61-6.07-2.66-6.07-7.98l.38-3.8q-5.7-7.21-13.3-38.36l-2.28-14.44v-2.66l1.14-6.84-2.28-.76v-3.8l-1.9-4.55q.76-6.84 5.32-14.82v-17.09l4.56-46.73v-27.35q0-4.18-11.4-6.08-3.04-7.98-3.04-18.23 0-6.08 24.31-6.08m142.46 12.15h-1.9l-1.14 1.14q3.04 3.04 6.84 3.04h1.14q0-4.18-4.94-4.18m-32.67 4.18-1.14-.76h-6.84v.76l4.18 1.52h2.66Zm22.79-.76h-1.52l-1.52.76 1.52 1.52h1.52l1.14-1.52Zm-144.73 2.66h-1.9v.76q0 1.52 3.04 1.52h.76l.76-1.14q-.38-1.14-2.66-1.14m11.78 9.12q-1.14 2.28-1.14 4.56l1.14 1.52h1.13q2.66-1.52 2.66-3.42-.38-2.66-3.79-2.66m10.63 6.84v-3.04l-1.14-1.52-3.04 6.46v.76q1.14 2.66 3.42 2.66.76-2.28.76-5.32m-5.7 24.31v.38h.76l1.14-4.18h-.38q-1.52 0-1.52 3.8m127.26 4.18-.76-4.18h-1.52l-.37 1.9v6.84l.37 1.14h.76q1.52-.38 1.52-2.66Zm-134.85-1.52h-1.14v8.74h1.14q1.52 0 1.52-4.94-.38-3.8-1.52-3.8m11.01 14.06v7.59h1.52q1.14-4.56 1.14-10.63v-4.94h-1.14q-1.52 0-1.52 7.98m124.6 8.73v-2.66h-2.28l-.76 7.22v4.56h1.52q1.52-4.94 1.52-9.12m-133.33 19.38h.75l-.75-.76Zm1.51 8.73-1.13-.76h-.38l-.38 2.66v13.68h1.13l.76-9.5Zm124.99 0h-.38v1.52q0 1.14 3.8 1.52l.37-.38v-.38q-2.27-2.28-3.79-2.28m3.79 14.82v-.76h-1.13l-.38 2.28v.76h1.51Zm-4.17 17.85h.38q2.28 0 2.66-10.63h-.38q-2.28.38-2.66 10.63m-1.52 6.46v2.28h.38q1.52-.38 1.52-3.8v-2.28h-.38q-1.52.38-1.52 3.8m-121.57 30.01h-.76v1.9q0 4.18 2.28 9.5-.76 2.28-.76 4.94v2.28q.76 4.18 4.18 4.18l1.14-.38v-.76q-1.14-7.6-1.9-10.26l.38-3.04v-.76q0-2.28-4.56-7.6m18.24 8.74h-.76v.38q0 1.52 7.6 13.68v.76h2.66l1.9-1.9v-.38q0-1.9-7.6-8.36v-.38l1.52-1.14q-1.52-2.66-5.32-2.66m83.57 20.89.76.76h.38q7.98-3.04 7.98-7.59l-1.14-.38q-4.56 0-7.98 7.21m-94.59 1.52-1.14 1.14q1.52 3.8 3.8 5.32h.76v-1.52q0-2.66-3.42-4.94m26.21 1.9-1.9-1.14-1.14.76v.38l1.14 1.14h1.9Zm57.37 2.66h1.14q2.28 0 3.03-2.28v-1.14h-.37q-3.8.38-3.8 3.42m-30.39 1.14h-.76l-3.8 1.14v1.52h.38q3.8 0 4.18-1.52Zm40.26 8.36v.76h.76q2.66 0 3.04-2.28v-.76h-.38q-3.04 1.14-3.42 2.28m-33.43-2.28h-1.52l-3.42.76v2.28h2.28q1.9 0 2.66-1.9Zm21.28 7.22v.76h3.42q6.83-1.14 6.83-3.8h-2.28q-6.07 0-7.97 3.04"/><path fill="#2ecc40" d="M1302.905 353.103V456.93a23.28 23.28 0 1 1-46.56 0v-49.586l-152.872 152.872a24.056 24.056 0 0 1-32.98 0l-93.741-93.74-155.9 155.897a23.28 23.28 0 0 1-32.901 0 23.28 23.28 0 0 1 0-32.903L960.3 417.044a24.056 24.056 0 0 1 32.902 0l93.74 93.818 134.482-134.48h-45.63a23.28 23.28 0 1 1 0-46.56h103.83a23.28 23.28 0 0 1 23.28 23.28"/></g><path fill="transparent" stroke="transparent" d="M724.5 0h551v629h-551z"/></g></svg>